<svg id="Layer_1" data-name="Layer 1" xmlns="http://www.w3.org/2000/svg" xmlns:xlink="http://www.w3.org/1999/xlink" viewBox="0 0 1276.16 832.74"><defs><style>.cls-1{fill:none;}.cls-2{font-size:75.65px;fill:#9a2769;font-family:Montserrat-Medium, Montserrat;font-weight:500;}.cls-3{font-size:249.91px;}.cls-3,.cls-5{font-family:Montserrat-Bold, Montserrat;font-weight:700;}.cls-4{fill:url(#HEAL_Text_Gradient);}.cls-5{font-size:129.02px;fill:#010101;}.cls-6{letter-spacing:-0.07em;}.cls-7{clip-path:url(#clip-path);}.cls-8{fill:url(#linear-gradient);}</style><linearGradient id="HEAL_Text_Gradient" x1="67.21" y1="322.16" x2="756.46" y2="322.16" gradientUnits="userSpaceOnUse"><stop offset="0" stop-color="#532665"/><stop offset="0.33" stop-color="#992769"/><stop offset="0.68" stop-color="#982033"/><stop offset="1" stop-color="#bf382e"/></linearGradient><clipPath id="clip-path"><rect class="cls-1" x="54.47" y="618.47" width="1150" height="18.39"/></clipPath><linearGradient id="linear-gradient" x1="30.64" y1="1073.82" x2="38.62" y2="1073.82" gradientTransform="matrix(144, 0, 0, -144, -4357.13, 155258.41)" xlink:href="#HEAL_Text_Gradient"/></defs><title>HEAL_Program-Mark-HCS-svg</title><text class="cls-2" transform="translate(48.47 734.07)">HEALing Communities Study</text><text class="cls-3" transform="translate(46.47 409.63)">HEAL</text><path class="cls-4" d="M227.65,234.7V409.63H187.17V337.91H107.7v71.72H67.21V234.7H107.7v69h79.47v-69Z"/><path class="cls-4" d="M404.59,377.14v32.49H269.14V234.7h132.2v32.48h-92v38H390.6v31.49H309.38v40.48Z"/><path class="cls-4" d="M552,372.14H470.82l-15.5,37.49H413.84l78-174.93h40L610,409.63H567.53Zm-12.75-30.73-27.74-67-27.74,67Z"/><path class="cls-4" d="M628.26,234.7h40.49V376.64h87.71v33H628.26Z"/><text class="cls-5" transform="translate(53.43 552.98)">INITI<tspan class="cls-6" x="310.93" y="0">A</tspan><tspan x="400.08" y="0">TIVE</tspan></text><text class="cls-5" transform="translate(53.4 187.48)">NIH</text><g class="cls-7"><rect class="cls-8" x="54.47" y="618.47" width="1150" height="18.39"/></g></svg>